<svg width="20" height="15" xmlns="http://www.w3.org/2000/svg">

 <g>
  <title>background</title>
  <rect fill="none" id="canvas_background" height="17" width="22" y="-1" x="-1"/>
 </g>
 <g>
  <title>Layer 1</title>
  <path id="svg_3" fill="#EF1E25" d="m10,-0.04565c-5.522995,0 -10,4.51986 -10,10.09545c0,3.0232 1.304993,4.994901 1.304993,4.994901l17.387009,0.0009c0,0 1.307999,-2.154902 1.307999,-4.996001c0,-5.57539 -4.477005,-10.09525 -10,-10.09525zm7.957993,13.861351l-15.883987,-0.006901c0,0 -0.846008,-1.6029 -0.846008,-3.790899c0,-4.886741 3.942001,-8.84856 8.806,-8.84856c4.863007,0 8.806,3.96161 8.806,8.84856c0,2.2127 -0.882004,3.7978 -0.882004,3.7978z"/>
  <path id="svg_4" fill="#EF1E25" d="m12.857254,2.400745l-0.125,-0.00021l-2.667999,5.22689l-2.763,-5.27153l-3.784012,9.52313l-0.977997,0l0,0.764899l5.35701,0l0,-0.764899l-1.063004,0l1.063004,-2.9763l2.167999,3.741199l2.082993,-3.741199l1.063004,2.9763l-1.063004,0l0,0.764899l5.313995,0l0,-0.764899l-0.919998,0l-3.68399,-9.478281z"/>
 </g>
</svg>