<svg width="20" height="15.000000000000002" xmlns="http://www.w3.org/2000/svg">

 <g>
  <title>background</title>
  <rect fill="none" id="canvas_background" height="17" width="22" y="-1" x="-1"/>
 </g>
 <g>
  <title>Layer 1</title>
  <path id="svg_1" fill="#029A55" d="m9.999851,-0.001485c-5.522831,0 -10.000201,4.51986 -10.000201,10.09545c0,3.0232 1.30469,4.994901 1.30469,4.994901l17.38681,0.0009c0,0 1.3085,-2.154902 1.3085,-4.996001c0,-5.57539 -4.4774,-10.095249 -9.9998,-10.095249zm7.957899,13.86135l-15.88413,-0.006901c0,0 -0.84639,-1.6029 -0.84639,-3.790899c0,-4.886741 3.94258,-8.84856 8.80612,-8.84856c4.8634,0 8.806199,3.96161 8.806199,8.84856c0.0002,2.2127 -0.8818,3.7978 -0.8818,3.7978z"/>
  <path id="svg_2" fill="#029A55" d="m12.857001,2.901941l-0.125501,-0.00021l-2.667399,5.22689l-2.763461,-5.27153l-3.78353,9.523129l-0.97779,0l0,0.7649l5.356669,0l0,-0.7649l-1.06287,0l1.06287,-2.976299l2.168111,3.741199l2.083099,-3.741199l1.0627,2.976299l-1.0627,0l0,0.7649l5.314,0l0,-0.7649l-0.920599,0l-3.6836,-9.478279z"/>
 </g>
</svg>